<?xml version="1.0" encoding="iso-8859-1"?>
<!-- Generator: Adobe Illustrator 19.0.0, SVG Export Plug-In . SVG Version: 6.00 Build 0)  -->
<svg version="1.1" id="Capa_1" xmlns="http://www.w3.org/2000/svg" xmlns:xlink="http://www.w3.org/1999/xlink" x="0px" y="0px"
	 viewBox="0 0 480 480" style="enable-background:new 0 0 480 480;" xml:space="preserve">
<g>
	<path style="fill:#7CDAAF;" d="M220,245V85L110,35L0,85v350h260v-10v-10v-10v-10v-10v-10v-10v-10v-10v-10v-10v-10v-10h180v10v10v10
		v10v10v10v10v10v10v10v10v10v10h40V265H220V245z M100,305v20v10v60v10H90H40H30v-10v-60v-10v-20v-10h10h50h10V305z M100,145v20v10
		v60v10H90H40H30v-10v-60v-10v-20v-10h10h50h10V145z M190,305v20v10v60v10h-10h-50h-10v-10v-60v-10v-20v-10h10h50h10V305z M190,145
		v20v10v60v10h-10h-50h-10v-10v-60v-10v-20v-10h10h50h10V145z"/>
	<rect x="220" y="245" style="fill:#695A69;" width="260" height="20"/>
	<rect x="260" y="305" style="fill:#695A69;" width="180" height="10"/>
	<rect x="260" y="345" style="fill:#695A69;" width="180" height="10"/>
	<rect x="260" y="365" style="fill:#695A69;" width="180" height="10"/>
	<rect x="260" y="325" style="fill:#695A69;" width="180" height="10"/>
	<rect x="260" y="425" style="fill:#695A69;" width="180" height="10"/>
	<rect x="260" y="405" style="fill:#695A69;" width="180" height="10"/>
	<rect x="260" y="465" style="fill:#695A69;" width="180" height="10"/>
	<rect x="260" y="445" style="fill:#695A69;" width="180" height="10"/>
	<rect x="260" y="385" style="fill:#695A69;" width="180" height="10"/>
	<rect x="260" y="315" style="fill:#65B1A8;" width="180" height="10"/>
	<rect x="260" y="335" style="fill:#65B1A8;" width="180" height="10"/>
	<rect x="260" y="355" style="fill:#65B1A8;" width="180" height="10"/>
	<rect x="260" y="375" style="fill:#65B1A8;" width="180" height="10"/>
	<rect x="260" y="395" style="fill:#65B1A8;" width="180" height="10"/>
	<rect x="260" y="415" style="fill:#65B1A8;" width="180" height="10"/>
	<path style="fill:#65B1A8;" d="M260,435H0v40h220h40v-10h180v10h40v-40h-40H260z M440,455H260v-10h180V455z"/>
	<polygon style="fill:#95FFFF;" points="40,235 90,235 90,225 40,175 	"/>
	<polygon style="fill:#80D7F0;" points="90,225 90,175 40,175 	"/>
	<rect x="40" y="145" style="fill:#6EB1E2;" width="50" height="20"/>
	<path style="fill:#695A69;" d="M40,135H30v10v20v10v60v10h10h50h10v-10v-60v-10v-20v-10H90H40z M90,225v10H40v-60h50V225z M90,165
		H40v-20h50V165z"/>
	<polygon style="fill:#95FFFF;" points="130,235 180,235 180,225 130,175 	"/>
	<polygon style="fill:#80D7F0;" points="180,225 180,175 130,175 	"/>
	<rect x="130" y="145" style="fill:#6EB1E2;" width="50" height="20"/>
	<path style="fill:#695A69;" d="M130,135h-10v10v20v10v60v10h10h50h10v-10v-60v-10v-20v-10h-10H130z M180,225v10h-50v-60h50V225z
		 M180,165h-50v-20h50V165z"/>
	<polygon style="fill:#95FFFF;" points="40,395 90,395 90,385 40,335 	"/>
	<polygon style="fill:#80D7F0;" points="90,385 90,335 40,335 	"/>
	<rect x="40" y="305" style="fill:#6EB1E2;" width="50" height="20"/>
	<path style="fill:#695A69;" d="M40,295H30v10v20v10v60v10h10h50h10v-10v-60v-10v-20v-10H90H40z M90,385v10H40v-60h50V385z M90,325
		H40v-20h50V325z"/>
	<polygon style="fill:#95FFFF;" points="130,395 180,395 180,385 130,335 	"/>
	<polygon style="fill:#80D7F0;" points="180,385 180,335 130,335 	"/>
	<rect x="130" y="305" style="fill:#6EB1E2;" width="50" height="20"/>
	<path style="fill:#695A69;" d="M130,295h-10v10v20v10v60v10h10h50h10v-10v-60v-10v-20v-10h-10H130z M180,385v10h-50v-60h50V385z
		 M180,325h-50v-20h50V325z"/>
	<polygon style="fill:#695A69;" points="220,85 220,55 190,41.364 190,5 160,5 160,27.727 110,5 0,55 0,85 110,35 	"/>
</g>
<g>
</g>
<g>
</g>
<g>
</g>
<g>
</g>
<g>
</g>
<g>
</g>
<g>
</g>
<g>
</g>
<g>
</g>
<g>
</g>
<g>
</g>
<g>
</g>
<g>
</g>
<g>
</g>
<g>
</g>
</svg>
