<?xml version="1.0" encoding="iso-8859-1"?>
<!-- Generator: Adobe Illustrator 19.0.0, SVG Export Plug-In . SVG Version: 6.00 Build 0)  -->
<svg version="1.1" id="Layer_1" xmlns="http://www.w3.org/2000/svg" xmlns:xlink="http://www.w3.org/1999/xlink" x="0px" y="0px"
	 viewBox="0 0 512 512" style="enable-background:new 0 0 512 512;" xml:space="preserve">
<rect x="17.655" y="61.794" style="fill:#C7CFE2;" width="476.69" height="388.41"/>
<g>
	<rect x="17.655" y="406.07" style="fill:#9FA7BF;" width="476.69" height="44.14"/>
	<rect x="17.655" y="247.171" style="fill:#9FA7BF;" width="476.69" height="17.655"/>
</g>
<rect x="203.03" y="114.761" style="fill:#B4E1FA;" width="105.93" height="88.28"/>
<polygon style="fill:#A0D2F0;" points="211.862,114.76 203.034,114.76 203.034,203.035 261.517,203.035 "/>
<polygon style="fill:#DAF0FD;" points="308.966,203.035 308.966,193.227 264.828,114.76 238.345,114.76 288,203.035 "/>
<rect x="203.03" y="114.761" style="fill:#A0D2F0;" width="105.93" height="26.483"/>
<polygon style="fill:#B4E1FA;" points="279.724,141.242 264.828,114.76 238.345,114.76 253.241,141.242 "/>
<rect x="247.17" y="114.761" style="fill:#5B5D6E;" width="17.655" height="88.28"/>
<path style="fill:#707487;" d="M308.966,211.863H203.034c-4.879,0-8.828-3.953-8.828-8.828v-88.276c0-4.875,3.948-8.828,8.828-8.828
	h105.931c4.879,0,8.828,3.953,8.828,8.828v88.276C317.793,207.911,313.845,211.863,308.966,211.863z M211.862,194.208h88.276
	v-70.621h-88.276V194.208z"/>
<rect x="344.28" y="114.761" style="fill:#B4E1FA;" width="105.93" height="88.28"/>
<polygon style="fill:#A0D2F0;" points="353.103,114.76 344.276,114.76 344.276,203.035 402.759,203.035 "/>
<polygon style="fill:#DAF0FD;" points="450.207,203.035 450.207,193.227 406.069,114.76 379.586,114.76 429.241,203.035 "/>
<rect x="344.28" y="114.761" style="fill:#A0D2F0;" width="105.93" height="26.483"/>
<polygon style="fill:#B4E1FA;" points="420.966,141.242 406.069,114.76 379.586,114.76 394.483,141.242 "/>
<rect x="388.41" y="114.761" style="fill:#5B5D6E;" width="17.655" height="88.28"/>
<path style="fill:#707487;" d="M450.207,211.863H344.276c-4.879,0-8.828-3.953-8.828-8.828v-88.276c0-4.875,3.948-8.828,8.828-8.828
	h105.931c4.879,0,8.828,3.953,8.828,8.828v88.276C459.034,207.911,455.086,211.863,450.207,211.863z M353.103,194.208h88.276
	v-70.621h-88.276V194.208z"/>
<rect x="61.793" y="114.761" style="fill:#B4E1FA;" width="105.93" height="88.28"/>
<polygon style="fill:#A0D2F0;" points="70.621,114.76 61.793,114.76 61.793,203.035 120.276,203.035 "/>
<polygon style="fill:#DAF0FD;" points="167.724,203.035 167.724,193.227 123.586,114.76 97.103,114.76 146.759,203.035 "/>
<rect x="61.793" y="114.761" style="fill:#A0D2F0;" width="105.93" height="26.483"/>
<polygon style="fill:#B4E1FA;" points="138.483,141.242 123.586,114.76 97.103,114.76 112,141.242 "/>
<rect x="105.93" y="114.761" style="fill:#5B5D6E;" width="17.655" height="88.28"/>
<path style="fill:#707487;" d="M167.724,211.863H61.793c-4.879,0-8.828-3.953-8.828-8.828v-88.276c0-4.875,3.948-8.828,8.828-8.828
	h105.931c4.879,0,8.828,3.953,8.828,8.828v88.276C176.552,207.911,172.604,211.863,167.724,211.863z M70.621,194.208h88.276v-70.621
	H70.621V194.208z"/>
<rect x="203.03" y="291.31" style="fill:#B4E1FA;" width="105.93" height="88.28"/>
<polygon style="fill:#A0D2F0;" points="211.862,291.31 203.034,291.31 203.034,379.586 261.517,379.586 "/>
<polygon style="fill:#DAF0FD;" points="308.966,379.586 308.966,369.779 264.828,291.31 238.345,291.31 288,379.586 "/>
<rect x="203.03" y="291.31" style="fill:#A0D2F0;" width="105.93" height="26.483"/>
<polygon style="fill:#B4E1FA;" points="279.724,317.793 264.828,291.31 238.345,291.31 253.241,317.793 "/>
<rect x="247.17" y="291.31" style="fill:#5B5D6E;" width="17.655" height="88.28"/>
<path style="fill:#707487;" d="M308.966,388.414H203.034c-4.879,0-8.828-3.953-8.828-8.828V291.31c0-4.875,3.948-8.828,8.828-8.828
	h105.931c4.879,0,8.828,3.953,8.828,8.828v88.276C317.793,384.461,313.845,388.414,308.966,388.414z M211.862,370.759h88.276
	v-70.621h-88.276V370.759z"/>
<rect x="344.28" y="291.31" style="fill:#B4E1FA;" width="105.93" height="88.28"/>
<polygon style="fill:#A0D2F0;" points="353.103,291.31 344.276,291.31 344.276,379.586 402.759,379.586 "/>
<polygon style="fill:#DAF0FD;" points="450.207,379.586 450.207,369.779 406.069,291.31 379.586,291.31 429.241,379.586 "/>
<rect x="344.28" y="291.31" style="fill:#A0D2F0;" width="105.93" height="26.483"/>
<polygon style="fill:#B4E1FA;" points="420.966,317.793 406.069,291.31 379.586,291.31 394.483,317.793 "/>
<rect x="388.41" y="291.31" style="fill:#5B5D6E;" width="17.655" height="88.28"/>
<path style="fill:#707487;" d="M450.207,388.414H344.276c-4.879,0-8.828-3.953-8.828-8.828V291.31c0-4.875,3.948-8.828,8.828-8.828
	h105.931c4.879,0,8.828,3.953,8.828,8.828v88.276C459.034,384.461,455.086,388.414,450.207,388.414z M353.103,370.759h88.276
	v-70.621h-88.276V370.759z"/>
<rect x="61.793" y="291.31" style="fill:#B4E1FA;" width="105.93" height="88.28"/>
<polygon style="fill:#A0D2F0;" points="70.621,291.31 61.793,291.31 61.793,379.586 120.276,379.586 "/>
<polygon style="fill:#DAF0FD;" points="167.724,379.586 167.724,369.779 123.586,291.31 97.103,291.31 146.759,379.586 "/>
<rect x="61.793" y="291.31" style="fill:#A0D2F0;" width="105.93" height="26.483"/>
<polygon style="fill:#B4E1FA;" points="138.483,317.793 123.586,291.31 97.103,291.31 112,317.793 "/>
<rect x="105.93" y="291.31" style="fill:#5B5D6E;" width="17.655" height="88.28"/>
<path style="fill:#707487;" d="M167.724,388.414H61.793c-4.879,0-8.828-3.953-8.828-8.828V291.31c0-4.875,3.948-8.828,8.828-8.828
	h105.931c4.879,0,8.828,3.953,8.828,8.828v88.276C176.552,384.461,172.604,388.414,167.724,388.414z M70.621,370.759h88.276v-70.621
	H70.621V370.759z"/>
<path style="fill:#8F96AC;" d="M507.586,459.034H4.414c-2.438,0-4.414-1.976-4.414-4.414v-8.828c0-2.438,1.976-4.414,4.414-4.414
	h503.172c2.438,0,4.414,1.976,4.414,4.414v8.828C512,457.059,510.024,459.034,507.586,459.034z"/>
<path style="fill:#9FA7BF;" d="M498.759,70.622H13.241c-2.438,0-4.414-1.976-4.414-4.414V57.38c0-2.438,1.976-4.414,4.414-4.414
	h485.517c2.438,0,4.414,1.976,4.414,4.414v8.828C503.172,68.645,501.196,70.622,498.759,70.622z"/>
<g>
</g>
<g>
</g>
<g>
</g>
<g>
</g>
<g>
</g>
<g>
</g>
<g>
</g>
<g>
</g>
<g>
</g>
<g>
</g>
<g>
</g>
<g>
</g>
<g>
</g>
<g>
</g>
<g>
</g>
</svg>
