<?xml version="1.0" encoding="iso-8859-1"?>
<!-- Generator: Adobe Illustrator 19.0.0, SVG Export Plug-In . SVG Version: 6.00 Build 0)  -->
<svg version="1.1" id="Layer_1" xmlns="http://www.w3.org/2000/svg" xmlns:xlink="http://www.w3.org/1999/xlink" x="0px" y="0px"
	 viewBox="0 0 512 512" style="enable-background:new 0 0 512 512;" xml:space="preserve">
<path style="fill:#9FA7BF;" d="M111.108,433.57l5.558,0.255c0.863,0.04,1.702,0.405,2.301,1.004
	c0.638,0.637,1.019,1.562,1.019,2.474c0,0.904-0.381,1.824-1.019,2.463c-0.599,0.598-1.436,0.963-2.301,1.003l-5.558,0.255v58.161
	h67.125V385.113h-67.125V433.57z"/>
<g>
	<rect x="148.171" y="273.276" style="fill:#A0D2F0;" width="30.289" height="57.864"/>
	<rect x="148.171" y="161.836" style="fill:#A0D2F0;" width="30.289" height="57.852"/>
	<rect x="148.171" y="50" style="fill:#A0D2F0;" width="30.289" height="57.852"/>
</g>
<g>
	<rect x="110.893" y="50" style="fill:#DAF0FD;" width="30.289" height="57.852"/>
	<rect x="110.893" y="161.836" style="fill:#DAF0FD;" width="30.289" height="57.852"/>
	<rect x="110.893" y="273.276" style="fill:#DAF0FD;" width="30.289" height="57.864"/>
	<rect x="223.09" y="385.113" style="fill:#DAF0FD;" width="30.289" height="57.864"/>
	<rect x="223.09" y="273.276" style="fill:#DAF0FD;" width="30.289" height="57.864"/>
	<rect x="223.09" y="161.836" style="fill:#DAF0FD;" width="30.289" height="57.852"/>
	<rect x="223.09" y="50" style="fill:#DAF0FD;" width="30.289" height="57.852"/>
</g>
<g>
	<rect x="260.369" y="50" style="fill:#A0D2F0;" width="30.289" height="57.852"/>
	<rect x="260.369" y="161.836" style="fill:#A0D2F0;" width="30.289" height="57.852"/>
	<rect x="260.369" y="273.276" style="fill:#A0D2F0;" width="30.289" height="57.864"/>
	<rect x="260.369" y="385.113" style="fill:#A0D2F0;" width="30.289" height="57.864"/>
</g>
<g>
	<rect x="335.217" y="273.276" style="fill:#DAF0FD;" width="30.289" height="57.864"/>
	<rect x="335.217" y="385.113" style="fill:#DAF0FD;" width="30.289" height="57.864"/>
</g>
<g>
	<rect x="372.496" y="385.113" style="fill:#A0D2F0;" width="30.289" height="57.864"/>
	<rect x="372.496" y="273.276" style="fill:#A0D2F0;" width="30.289" height="57.864"/>
</g>
<rect x="335.217" y="161.836" style="fill:#DAF0FD;" width="30.289" height="57.852"/>
<rect x="372.496" y="161.836" style="fill:#A0D2F0;" width="30.289" height="57.852"/>
<rect x="335.217" y="50" style="fill:#DAF0FD;" width="30.289" height="57.852"/>
<rect x="372.496" y="50" style="fill:#A0D2F0;" width="30.289" height="57.852"/>
<path style="fill:#82B1E1;" d="M73.585,12.815v486.371h30.534V381.618c0-1.927,1.568-3.495,3.495-3.495h74.115
	c1.927,0,3.495,1.568,3.495,3.495v117.568h253.868V12.815H73.585z M185.443,111.347c0,1.927-1.568,3.495-3.495,3.495h-74.557
	c-1.927,0-3.495-1.568-3.495-3.495V46.505c0-1.927,1.568-3.495,3.495-3.495h74.557c1.927,0,3.495,1.568,3.495,3.495V111.347z
	 M103.897,158.341c0-1.927,1.568-3.495,3.495-3.495h74.557c1.927,0,3.495,1.568,3.495,3.495v64.842c0,1.927-1.568,3.495-3.495,3.495
	h-74.557c-1.927,0-3.495-1.568-3.495-3.495V158.341z M103.897,269.781c0-1.927,1.568-3.495,3.495-3.495h74.557
	c1.927,0,3.495,1.568,3.495,3.495v64.853c0,1.927-1.568,3.495-3.495,3.495h-74.557c-1.927,0-3.495-1.568-3.495-3.495V269.781z
	 M297.641,111.347c0,1.927-1.568,3.495-3.495,3.495h-74.557c-1.927,0-3.495-1.568-3.495-3.495V46.505
	c0-1.927,1.568-3.495,3.495-3.495h74.557c1.927,0,3.495,1.568,3.495,3.495V111.347z M216.094,158.341
	c0-1.927,1.568-3.495,3.495-3.495h74.557c1.927,0,3.495,1.568,3.495,3.495v64.842c0,1.927-1.568,3.495-3.495,3.495h-74.557
	c-1.927,0-3.495-1.568-3.495-3.495V158.341z M216.094,269.781c0-1.927,1.568-3.495,3.495-3.495h74.557
	c1.927,0,3.495,1.568,3.495,3.495v64.853c0,1.927-1.568,3.495-3.495,3.495h-74.557c-1.927,0-3.495-1.568-3.495-3.495V269.781z
	 M216.094,381.618c0-1.927,1.568-3.495,3.495-3.495h74.557c1.927,0,3.495,1.568,3.495,3.495v64.853c0,1.927-1.568,3.495-3.495,3.495
	h-74.557c-1.927,0-3.495-1.568-3.495-3.495V381.618z M409.769,111.347c0,1.927-1.568,3.495-3.495,3.495h-74.557
	c-1.927,0-3.495-1.568-3.495-3.495V46.505c0-1.927,1.568-3.495,3.495-3.495h74.557c1.927,0,3.495,1.568,3.495,3.495V111.347z
	 M328.222,158.341c0-1.927,1.568-3.495,3.495-3.495h74.557c1.927,0,3.495,1.568,3.495,3.495v64.842c0,1.927-1.568,3.495-3.495,3.495
	h-74.557c-1.927,0-3.495-1.568-3.495-3.495V158.341z M328.222,269.781c0-1.927,1.568-3.495,3.495-3.495h74.557
	c1.927,0,3.495,1.568,3.495,3.495v64.853c0,1.927-1.568,3.495-3.495,3.495h-74.557c-1.927,0-3.495-1.568-3.495-3.495V269.781z
	 M328.222,381.618c0-1.927,1.568-3.495,3.495-3.495h74.557c1.927,0,3.495,1.568,3.495,3.495v64.853c0,1.927-1.568,3.495-3.495,3.495
	h-74.557c-1.927,0-3.495-1.568-3.495-3.495V381.618z"/>
<path d="M451.906,493.396c4.823,0.349,8.644,4.369,8.644,9.285c0,5.149-4.182,9.32-9.32,9.32H60.77c-5.149,0-9.32-4.171-9.32-9.32
	s4.171-9.32,9.32-9.32V18.628c-5.009-0.163-9.017-4.264-9.017-9.308c0-5.149,4.171-9.32,9.32-9.32h389.854
	c5.149,0,9.32,4.171,9.32,9.32c0,4.811-3.658,8.772-8.341,9.273V493.396z M433.266,493.361V18.639H79.409v474.721h18.884V381.618
	c0-5.137,4.171-9.32,9.32-9.32h74.115c5.149,0,9.32,4.182,9.32,9.32v111.743H433.266z M172.408,493.361V390.937h-55.475v37.069
	c2.295,0.105,4.52,1.072,6.151,2.703c1.736,1.736,2.726,4.136,2.726,6.594c0,2.446-0.99,4.846-2.726,6.582
	c-1.631,1.631-3.856,2.598-6.151,2.703v46.773L172.408,493.361L172.408,493.361z"/>
<path d="M415.594,381.618v64.853c0,5.149-4.171,9.32-9.32,9.32h-74.557c-5.137,0-9.32-4.171-9.32-9.32v-64.853
	c0-5.137,4.182-9.32,9.32-9.32h74.557C411.423,372.298,415.594,376.48,415.594,381.618z M396.954,437.151v-46.214h-18.639v46.214
	H396.954z M359.676,437.151v-46.214h-18.639v46.214H359.676z"/>
<path d="M415.594,269.781v64.853c0,5.149-4.171,9.32-9.32,9.32h-74.557c-5.137,0-9.32-4.171-9.32-9.32v-64.853
	c0-5.137,4.182-9.32,9.32-9.32h74.557C411.423,260.462,415.594,264.644,415.594,269.781z M396.954,325.315v-46.214h-18.639v46.214
	H396.954z M359.676,325.315v-46.214h-18.639v46.214H359.676z"/>
<path d="M415.594,158.341v64.842c0,5.149-4.171,9.32-9.32,9.32h-74.557c-5.137,0-9.32-4.171-9.32-9.32v-64.842
	c0-5.149,4.182-9.32,9.32-9.32h74.557C411.423,149.022,415.594,153.192,415.594,158.341z M396.954,213.863v-46.202h-18.639v46.202
	H396.954z M359.676,213.863v-46.202h-18.639v46.202H359.676z"/>
<path d="M415.594,46.505v64.842c0,5.149-4.171,9.32-9.32,9.32h-74.557c-5.137,0-9.32-4.171-9.32-9.32V46.505
	c0-5.149,4.182-9.32,9.32-9.32h74.557C411.423,37.186,415.594,41.356,415.594,46.505z M396.954,102.027V55.825h-18.639v46.202
	H396.954z M359.676,102.027V55.825h-18.639v46.202H359.676z"/>
<path d="M303.466,381.618v64.853c0,5.149-4.171,9.32-9.32,9.32h-74.557c-5.137,0-9.32-4.171-9.32-9.32v-64.853
	c0-5.137,4.182-9.32,9.32-9.32h74.557C299.296,372.298,303.466,376.48,303.466,381.618z M284.827,437.151v-46.214h-18.639v46.214
	H284.827z M247.548,437.151v-46.214h-18.639v46.214H247.548z"/>
<path d="M303.466,269.781v64.853c0,5.149-4.171,9.32-9.32,9.32h-74.557c-5.137,0-9.32-4.171-9.32-9.32v-64.853
	c0-5.137,4.182-9.32,9.32-9.32h74.557C299.296,260.462,303.466,264.644,303.466,269.781z M284.827,325.315v-46.214h-18.639v46.214
	H284.827z M247.548,325.315v-46.214h-18.639v46.214H247.548z"/>
<path d="M303.466,158.341v64.842c0,5.149-4.171,9.32-9.32,9.32h-74.557c-5.137,0-9.32-4.171-9.32-9.32v-64.842
	c0-5.149,4.182-9.32,9.32-9.32h74.557C299.296,149.022,303.466,153.192,303.466,158.341z M284.827,213.863v-46.202h-18.639v46.202
	H284.827z M247.548,213.863v-46.202h-18.639v46.202H247.548z"/>
<path d="M303.466,46.505v64.842c0,5.149-4.171,9.32-9.32,9.32h-74.557c-5.137,0-9.32-4.171-9.32-9.32V46.505
	c0-5.149,4.182-9.32,9.32-9.32h74.557C299.296,37.186,303.466,41.356,303.466,46.505z M284.827,102.027V55.825h-18.639v46.202
	H284.827z M247.548,102.027V55.825h-18.639v46.202H247.548z"/>
<path d="M191.269,269.781v64.853c0,5.149-4.171,9.32-9.32,9.32h-74.557c-5.149,0-9.32-4.171-9.32-9.32v-64.853
	c0-5.137,4.171-9.32,9.32-9.32h74.557C187.098,260.462,191.269,264.644,191.269,269.781z M172.63,325.315v-46.214H153.99v46.214
	H172.63z M135.351,325.315v-46.214h-18.639v46.214H135.351z"/>
<path d="M191.269,158.341v64.842c0,5.149-4.171,9.32-9.32,9.32h-74.557c-5.149,0-9.32-4.171-9.32-9.32v-64.842
	c0-5.149,4.171-9.32,9.32-9.32h74.557C187.098,149.022,191.269,153.192,191.269,158.341z M172.63,213.863v-46.202H153.99v46.202
	H172.63z M135.351,213.863v-46.202h-18.639v46.202H135.351z"/>
<path d="M191.269,46.505v64.842c0,5.149-4.171,9.32-9.32,9.32h-74.557c-5.149,0-9.32-4.171-9.32-9.32V46.505
	c0-5.149,4.171-9.32,9.32-9.32h74.557C187.098,37.186,191.269,41.356,191.269,46.505z M172.63,102.027V55.825H153.99v46.202H172.63z
	 M135.351,102.027V55.825h-18.639v46.202H135.351z"/>
<g>
</g>
<g>
</g>
<g>
</g>
<g>
</g>
<g>
</g>
<g>
</g>
<g>
</g>
<g>
</g>
<g>
</g>
<g>
</g>
<g>
</g>
<g>
</g>
<g>
</g>
<g>
</g>
<g>
</g>
</svg>
