<?xml version="1.0" encoding="iso-8859-1"?>
<!-- Generator: Adobe Illustrator 19.0.0, SVG Export Plug-In . SVG Version: 6.00 Build 0)  -->
<svg version="1.1" id="Layer_1" xmlns="http://www.w3.org/2000/svg" xmlns:xlink="http://www.w3.org/1999/xlink" x="0px" y="0px"
	 viewBox="0 0 512 512" style="enable-background:new 0 0 512 512;" xml:space="preserve">
<path style="fill:#AF6964;" d="M493.714,411.429H18.286V18.286c0-5.049,4.094-9.143,9.143-9.143h457.143
	c5.049,0,9.143,4.094,9.143,9.143V411.429z"/>
<path style="fill:#A05755;" d="M283.429,27.429h-54.857c-5.049,0-9.143,4.094-9.143,9.143v374.857c0,5.049,4.094,9.143,9.143,9.143
	h54.857c5.049,0,9.143-4.094,9.143-9.143V36.571C292.571,31.522,288.478,27.429,283.429,27.429z"/>
<rect x="228.571" y="54.857" style="fill:#B4E1FA;" width="54.857" height="54.857"/>
<rect x="228.571" y="54.857" style="fill:#A0D2F0;" width="54.857" height="27.429"/>
<path style="fill:#707487;" d="M283.429,118.857h-54.857c-5.049,0-9.143-4.094-9.143-9.143V54.857c0-5.049,4.094-9.143,9.143-9.143
	h54.857c5.049,0,9.143,4.094,9.143,9.143v54.857C292.571,114.763,288.478,118.857,283.429,118.857z M237.714,100.571h36.571V64
	h-36.571V100.571z"/>
<rect x="228.571" y="146.286" style="fill:#B4E1FA;" width="54.857" height="54.857"/>
<rect x="228.571" y="146.286" style="fill:#A0D2F0;" width="54.857" height="27.429"/>
<path style="fill:#707487;" d="M283.429,210.286h-54.857c-5.049,0-9.143-4.094-9.143-9.143v-54.857c0-5.049,4.094-9.143,9.143-9.143
	h54.857c5.049,0,9.143,4.094,9.143,9.143v54.857C292.571,206.192,288.478,210.286,283.429,210.286z M237.714,192h36.571v-36.571
	h-36.571V192z"/>
<rect x="228.571" y="237.714" style="fill:#B4E1FA;" width="54.857" height="54.857"/>
<rect x="228.571" y="237.714" style="fill:#A0D2F0;" width="54.857" height="27.429"/>
<path style="fill:#707487;" d="M283.429,301.714h-54.857c-5.049,0-9.143-4.094-9.143-9.143v-54.857c0-5.049,4.094-9.143,9.143-9.143
	h54.857c5.049,0,9.143,4.094,9.143,9.143v54.857C292.571,297.621,288.478,301.714,283.429,301.714z M237.714,283.429h36.571v-36.571
	h-36.571V283.429z"/>
<rect x="228.571" y="329.143" style="fill:#B4E1FA;" width="54.857" height="54.857"/>
<rect x="228.571" y="329.143" style="fill:#A0D2F0;" width="54.857" height="27.429"/>
<path style="fill:#707487;" d="M283.429,393.143h-54.857c-5.049,0-9.143-4.094-9.143-9.143v-54.857c0-5.049,4.094-9.143,9.143-9.143
	h54.857c5.049,0,9.143,4.094,9.143,9.143V384C292.571,389.049,288.478,393.143,283.429,393.143z M237.714,374.857h36.571v-36.571
	h-36.571V374.857z"/>
<path style="fill:#A05755;" d="M374.857,27.429H320c-5.049,0-9.143,4.094-9.143,9.143v374.857c0,5.049,4.094,9.143,9.143,9.143
	h54.857c5.049,0,9.143-4.094,9.143-9.143V36.571C384,31.522,379.906,27.429,374.857,27.429z"/>
<rect x="320" y="54.857" style="fill:#B4E1FA;" width="54.857" height="54.857"/>
<rect x="320" y="54.857" style="fill:#A0D2F0;" width="54.857" height="27.429"/>
<path style="fill:#707487;" d="M374.857,118.857H320c-5.049,0-9.143-4.094-9.143-9.143V54.857c0-5.049,4.094-9.143,9.143-9.143
	h54.857c5.049,0,9.143,4.094,9.143,9.143v54.857C384,114.763,379.906,118.857,374.857,118.857z M329.143,100.571h36.571V64h-36.571
	V100.571z"/>
<rect x="320" y="146.286" style="fill:#B4E1FA;" width="54.857" height="54.857"/>
<rect x="320" y="146.286" style="fill:#A0D2F0;" width="54.857" height="27.429"/>
<path style="fill:#707487;" d="M374.857,210.286H320c-5.049,0-9.143-4.094-9.143-9.143v-54.857c0-5.049,4.094-9.143,9.143-9.143
	h54.857c5.049,0,9.143,4.094,9.143,9.143v54.857C384,206.192,379.906,210.286,374.857,210.286z M329.143,192h36.571v-36.571h-36.571
	V192z"/>
<rect x="320" y="237.714" style="fill:#B4E1FA;" width="54.857" height="54.857"/>
<rect x="320" y="237.714" style="fill:#A0D2F0;" width="54.857" height="27.429"/>
<path style="fill:#707487;" d="M374.857,301.714H320c-5.049,0-9.143-4.094-9.143-9.143v-54.857c0-5.049,4.094-9.143,9.143-9.143
	h54.857c5.049,0,9.143,4.094,9.143,9.143v54.857C384,297.621,379.906,301.714,374.857,301.714z M329.143,283.429h36.571v-36.571
	h-36.571V283.429z"/>
<rect x="320" y="329.143" style="fill:#B4E1FA;" width="54.857" height="54.857"/>
<rect x="320" y="329.143" style="fill:#A0D2F0;" width="54.857" height="27.429"/>
<path style="fill:#707487;" d="M374.857,393.143H320c-5.049,0-9.143-4.094-9.143-9.143v-54.857c0-5.049,4.094-9.143,9.143-9.143
	h54.857c5.049,0,9.143,4.094,9.143,9.143V384C384,389.049,379.906,393.143,374.857,393.143z M329.143,374.857h36.571v-36.571
	h-36.571V374.857z"/>
<path style="fill:#A05755;" d="M466.286,27.429h-54.857c-5.049,0-9.143,4.094-9.143,9.143v374.857c0,5.049,4.094,9.143,9.143,9.143
	h54.857c5.049,0,9.143-4.094,9.143-9.143V36.571C475.429,31.522,471.335,27.429,466.286,27.429z"/>
<rect x="411.429" y="54.857" style="fill:#B4E1FA;" width="54.857" height="54.857"/>
<rect x="411.429" y="54.857" style="fill:#A0D2F0;" width="54.857" height="27.429"/>
<path style="fill:#707487;" d="M466.286,118.857h-54.857c-5.049,0-9.143-4.094-9.143-9.143V54.857c0-5.049,4.094-9.143,9.143-9.143
	h54.857c5.049,0,9.143,4.094,9.143,9.143v54.857C475.429,114.763,471.335,118.857,466.286,118.857z M420.571,100.571h36.571V64
	h-36.571V100.571z"/>
<rect x="411.429" y="146.286" style="fill:#B4E1FA;" width="54.857" height="54.857"/>
<rect x="411.429" y="146.286" style="fill:#A0D2F0;" width="54.857" height="27.429"/>
<path style="fill:#707487;" d="M466.286,210.286h-54.857c-5.049,0-9.143-4.094-9.143-9.143v-54.857c0-5.049,4.094-9.143,9.143-9.143
	h54.857c5.049,0,9.143,4.094,9.143,9.143v54.857C475.429,206.192,471.335,210.286,466.286,210.286z M420.571,192h36.571v-36.571
	h-36.571V192z"/>
<rect x="411.429" y="237.714" style="fill:#B4E1FA;" width="54.857" height="54.857"/>
<rect x="411.429" y="237.714" style="fill:#A0D2F0;" width="54.857" height="27.429"/>
<path style="fill:#707487;" d="M466.286,301.714h-54.857c-5.049,0-9.143-4.094-9.143-9.143v-54.857c0-5.049,4.094-9.143,9.143-9.143
	h54.857c5.049,0,9.143,4.094,9.143,9.143v54.857C475.429,297.621,471.335,301.714,466.286,301.714z M420.571,283.429h36.571v-36.571
	h-36.571V283.429z"/>
<rect x="411.429" y="329.143" style="fill:#B4E1FA;" width="54.857" height="54.857"/>
<rect x="411.429" y="329.143" style="fill:#A0D2F0;" width="54.857" height="27.429"/>
<path style="fill:#707487;" d="M466.286,393.143h-54.857c-5.049,0-9.143-4.094-9.143-9.143v-54.857c0-5.049,4.094-9.143,9.143-9.143
	h54.857c5.049,0,9.143,4.094,9.143,9.143V384C475.429,389.049,471.335,393.143,466.286,393.143z M420.571,374.857h36.571v-36.571
	h-36.571V374.857z"/>
<path style="fill:#A05755;" d="M100.571,27.429H45.714c-5.049,0-9.143,4.094-9.143,9.143v374.857c0,5.049,4.094,9.143,9.143,9.143
	h54.857c5.049,0,9.143-4.094,9.143-9.143V36.571C109.714,31.522,105.621,27.429,100.571,27.429z"/>
<rect x="45.714" y="54.857" style="fill:#B4E1FA;" width="54.857" height="54.857"/>
<rect x="45.714" y="54.857" style="fill:#A0D2F0;" width="54.857" height="27.429"/>
<path style="fill:#707487;" d="M100.571,118.857H45.714c-5.049,0-9.143-4.094-9.143-9.143V54.857c0-5.049,4.094-9.143,9.143-9.143
	h54.857c5.049,0,9.143,4.094,9.143,9.143v54.857C109.714,114.763,105.621,118.857,100.571,118.857z M54.857,100.571h36.571V64
	H54.857V100.571z"/>
<rect x="45.714" y="146.286" style="fill:#B4E1FA;" width="54.857" height="54.857"/>
<rect x="45.714" y="146.286" style="fill:#A0D2F0;" width="54.857" height="27.429"/>
<path style="fill:#707487;" d="M100.571,210.286H45.714c-5.049,0-9.143-4.094-9.143-9.143v-54.857c0-5.049,4.094-9.143,9.143-9.143
	h54.857c5.049,0,9.143,4.094,9.143,9.143v54.857C109.714,206.192,105.621,210.286,100.571,210.286z M54.857,192h36.571v-36.571
	H54.857V192z"/>
<rect x="45.714" y="237.714" style="fill:#B4E1FA;" width="54.857" height="54.857"/>
<rect x="45.714" y="237.714" style="fill:#A0D2F0;" width="54.857" height="27.429"/>
<path style="fill:#707487;" d="M100.571,301.714H45.714c-5.049,0-9.143-4.094-9.143-9.143v-54.857c0-5.049,4.094-9.143,9.143-9.143
	h54.857c5.049,0,9.143,4.094,9.143,9.143v54.857C109.714,297.621,105.621,301.714,100.571,301.714z M54.857,283.429h36.571v-36.571
	H54.857V283.429z"/>
<rect x="45.714" y="329.143" style="fill:#B4E1FA;" width="54.857" height="54.857"/>
<rect x="45.714" y="329.143" style="fill:#A0D2F0;" width="54.857" height="27.429"/>
<path style="fill:#707487;" d="M100.571,393.143H45.714c-5.049,0-9.143-4.094-9.143-9.143v-54.857c0-5.049,4.094-9.143,9.143-9.143
	h54.857c5.049,0,9.143,4.094,9.143,9.143V384C109.714,389.049,105.621,393.143,100.571,393.143z M54.857,374.857h36.571v-36.571
	H54.857V374.857z"/>
<path style="fill:#A05755;" d="M192,27.429h-54.857c-5.049,0-9.143,4.094-9.143,9.143v374.857c0,5.049,4.094,9.143,9.143,9.143H192
	c5.049,0,9.143-4.094,9.143-9.143V36.571C201.143,31.522,197.049,27.429,192,27.429z"/>
<rect x="137.143" y="54.857" style="fill:#B4E1FA;" width="54.857" height="54.857"/>
<rect x="137.143" y="54.857" style="fill:#A0D2F0;" width="54.857" height="27.429"/>
<path style="fill:#707487;" d="M192,118.857h-54.857c-5.049,0-9.143-4.094-9.143-9.143V54.857c0-5.049,4.094-9.143,9.143-9.143H192
	c5.049,0,9.143,4.094,9.143,9.143v54.857C201.143,114.763,197.049,118.857,192,118.857z M146.286,100.571h36.571V64h-36.571V100.571
	z"/>
<rect x="137.143" y="146.286" style="fill:#B4E1FA;" width="54.857" height="54.857"/>
<rect x="137.143" y="146.286" style="fill:#A0D2F0;" width="54.857" height="27.429"/>
<path style="fill:#707487;" d="M192,210.286h-54.857c-5.049,0-9.143-4.094-9.143-9.143v-54.857c0-5.049,4.094-9.143,9.143-9.143H192
	c5.049,0,9.143,4.094,9.143,9.143v54.857C201.143,206.192,197.049,210.286,192,210.286z M146.286,192h36.571v-36.571h-36.571V192z"
	/>
<rect x="137.143" y="237.714" style="fill:#B4E1FA;" width="54.857" height="54.857"/>
<rect x="137.143" y="237.714" style="fill:#A0D2F0;" width="54.857" height="27.429"/>
<path style="fill:#707487;" d="M192,301.714h-54.857c-5.049,0-9.143-4.094-9.143-9.143v-54.857c0-5.049,4.094-9.143,9.143-9.143H192
	c5.049,0,9.143,4.094,9.143,9.143v54.857C201.143,297.621,197.049,301.714,192,301.714z M146.286,283.429h36.571v-36.571h-36.571
	V283.429z"/>
<rect x="137.143" y="329.143" style="fill:#B4E1FA;" width="54.857" height="54.857"/>
<rect x="137.143" y="329.143" style="fill:#A0D2F0;" width="54.857" height="27.429"/>
<path style="fill:#707487;" d="M192,393.143h-54.857c-5.049,0-9.143-4.094-9.143-9.143v-54.857c0-5.049,4.094-9.143,9.143-9.143H192
	c5.049,0,9.143,4.094,9.143,9.143V384C201.143,389.049,197.049,393.143,192,393.143z M146.286,374.857h36.571v-36.571h-36.571
	V374.857z"/>
<rect x="18.286" y="420.571" style="fill:#B4E1FA;" width="475.429" height="73.143"/>
<g>
	<rect x="18.286" y="420.571" style="fill:#A0D2F0;" width="475.429" height="27.429"/>
	<polygon style="fill:#A0D2F0;" points="154.694,493.714 113.551,420.571 67.837,420.571 108.979,493.714 	"/>
</g>
<polygon style="fill:#DAF0FD;" points="210.286,493.714 168.49,420.571 141.062,420.571 182.857,493.714 "/>
<polygon style="fill:#B4E1FA;" points="184.163,448 168.49,420.571 141.062,420.571 156.735,448 "/>
<polygon style="fill:#A0D2F0;" points="434.286,493.714 393.143,420.571 347.429,420.571 388.571,493.714 "/>
<polygon style="fill:#DAF0FD;" points="489.878,493.714 448.081,420.571 420.653,420.571 462.449,493.714 "/>
<polygon style="fill:#B4E1FA;" points="463.755,448 448.081,420.571 420.653,420.571 436.327,448 "/>
<g>
	<rect x="192" y="420.571" style="fill:#9FA7BF;" width="18.286" height="73.143"/>
	<rect x="18.286" y="420.571" style="fill:#9FA7BF;" width="18.286" height="73.143"/>
	<rect x="475.429" y="420.571" style="fill:#9FA7BF;" width="18.286" height="73.143"/>
	<rect x="301.714" y="420.571" style="fill:#9FA7BF;" width="18.286" height="73.143"/>
</g>
<path style="fill:#8F96AC;" d="M507.429,502.857H4.571c-2.525,0-4.571-2.047-4.571-4.571v-9.143c0-2.525,2.047-4.571,4.571-4.571
	h502.857c2.525,0,4.571,2.047,4.571,4.571v9.143C512,500.81,509.953,502.857,507.429,502.857z"/>
<path style="fill:#707487;" d="M498.286,429.714H13.714c-2.525,0-4.571-2.047-4.571-4.571V416c0-2.525,2.047-4.571,4.571-4.571
	h484.571c2.525,0,4.571,2.047,4.571,4.571v9.143C502.857,427.667,500.81,429.714,498.286,429.714z"/>
<g>
</g>
<g>
</g>
<g>
</g>
<g>
</g>
<g>
</g>
<g>
</g>
<g>
</g>
<g>
</g>
<g>
</g>
<g>
</g>
<g>
</g>
<g>
</g>
<g>
</g>
<g>
</g>
<g>
</g>
</svg>
